PathFileType	4	(X/Y/Z)	E:\Marcel_BSc\Ayumi_22_01_2025\22-01-2025\conv_dl_3.trc
DataRate	CameraRate	NumFrames	NumMarkers	Units	OrigDataRate	OrigDataStartFrame	OrigNumFrames
200.0	200.0	4	47	mm	200.0	1	2304	
Frame#	Time	FHD			LBHD			RBHD			RBAR			LBAR			RSACR			LSACR			USACR			C7			CLAV			T10			RSHO			LSHO			LTHI1			LTHI3			LTHI2			LTIB1			LTIB2			LTIB3			LMMAL			LLMAL			LHEE			LMT1			LMT5			LMT3			RTHI1			RTHI2			RTHI3			RTIB1			RTIB3			RTIB2			RLMAL			RMMAL			RHEE			RMT5			RMT1			RMT3			LDUPA			LMUPA			LUUPA			LRAD			RUL			RRAD			RUFIN			RMUPA			RDUPA			RUUPA			
		X1	Y1	Z1	X2	Y2	Z2	X3	Y3	Z3	X4	Y4	Z4	X5	Y5	Z5	X6	Y6	Z6	X7	Y7	Z7	X8	Y8	Z8	X9	Y9	Z9	X10	Y10	Z10	X11	Y11	Z11	X12	Y12	Z12	X13	Y13	Z13	X14	Y14	Z14	X15	Y15	Z15	X16	Y16	Z16	X17	Y17	Z17	X18	Y18	Z18	X19	Y19	Z19	X20	Y20	Z20	X21	Y21	Z21	X22	Y22	Z22	X23	Y23	Z23	X24	Y24	Z24	X25	Y25	Z25	X26	Y26	Z26	X27	Y27	Z27	X28	Y28	Z28	X29	Y29	Z29	X30	Y30	Z30	X31	Y31	Z31	X32	Y32	Z32	X33	Y33	Z33	X34	Y34	Z34	X35	Y35	Z35	X36	Y36	Z36	X37	Y37	Z37	X38	Y38	Z38	X39	Y39	Z39	X40	Y40	Z40	X41	Y41	Z41	X42	Y42	Z42	X43	Y43	Z43	X44	Y44	Z44	X45	Y45	Z45	X46	Y46	Z46	X47	Y47	Z47	
1	-0.005	73.331383	1617.9266	-633.45654	87.316483	1598.65	-573.36853	115.32495	1588.6891	-704.11591	180.26173	239.66031	-1728.4968	174.10637	251.49515	494.37296	296.76886	967.01373	-680.05841	296.71393	966.0553	-608.08252	290.00784	976.77527	-643.03003	263.06622	1403.0314	-626.57745	121.618	1345.2555	-643.04163	279.21957	1128.0151	-637.92584	207.13696	1416.6772	-771.71851	184.37621	1406.6824	-490.83701	236.03831	615.01917	-452.76834	257.22302	553.56604	-464.74393	207.2645	554.67853	-456.21478	246.39746	243.15665	-439.5184	296.74417	241.25226	-443.83124	266.43781	182.97316	-445.11554	260.81979	73.845757	-525.17096	277.99402	74.479332	-452.16965	319.95636	37.010448	-490.6077	121.96598	44.791767	-481.79492	148.35162	29.038059	-404.69662	122.77414	41.004173	-446.72467	247.56938	615.5954	-816.22522	219.83371	556.26984	-813.47913	271.24512	555.22668	-807.13641	261.60104	282.1156	-826.65247	282.73898	220.2162	-819.76929	311.76624	279.13763	-820.01703	289.2077	74.759529	-803.24847	252.99123	78.419434	-734.10992	329.0918	31.427008	-759.35217	149.20628	38.531284	-839.78564	129.50069	41.746552	-788.6109	136.59058	39.467236	-818.42242	262.25375	1320.2312	-306.61346	234.46133	1361.6998	-307.3595	245.18289	1368.1044	-368.31326	187.0665	1336.4122	23.235052	294.5062	1372.093	-1268.0034	235.82565	1389.8986	-1272.943	241.72568	1400.4822	-1342.9069	283.00745	1371.9946	-873.06195	290.11472	1363.6447	-934.16498	297.90881	1325.1823	-865.47382
2	0	73.176941	1617.8889	-633.50122	87.162529	1598.6184	-573.42218	115.19042	1588.6635	-704.17181	180.35843	239.65601	-1728.4824	174.1842	251.49358	494.358	296.71695	967.0108	-680.12976	296.66718	966.05597	-608.15186	289.95053	976.79785	-643.10931	262.978	1403.0331	-626.62836	121.55058	1345.2302	-643.12329	279.14862	1128.0186	-637.98822	207.07478	1416.6605	-771.77539	184.00555	1406.3593	-491.24146	236.30371	615.0896	-452.93448	257.54968	553.64423	-464.94305	207.57997	554.73419	-456.36639	246.62904	243.26221	-439.66519	296.99582	241.28188	-444.05969	266.6727	183.04321	-445.22937	260.79108	73.870003	-525.22937	277.98694	74.533066	-452.24698	319.96313	37.039722	-490.69025	121.93619	44.790752	-481.79584	148.38373	29.02562	-404.67389	122.77806	40.997261	-446.71356	247.77017	615.62836	-816.25153	220.08984	556.24243	-813.5238	271.48444	555.28156	-807.17303	261.95389	282.16446	-826.65033	282.93146	220.23093	-819.80743	312.00043	279.12769	-820.02844	289.24918	74.741447	-803.26331	253.02658	78.420387	-734.16418	329.11292	31.412985	-759.36633	149.21732	38.534878	-839.79773	129.52827	41.75251	-788.62311	136.61995	39.468258	-818.43298	262.10638	1320.1764	-306.67319	234.8616	1361.759	-307.18716	245.04413	1368.0583	-368.37064	186.89166	1336.3929	23.178873	294.46762	1372.1593	-1268.048	235.76576	1390.2043	-1273.3978	241.69572	1400.5569	-1342.9448	283.20566	1371.8357	-873.03491	289.79416	1363.7716	-934.25574	297.87073	1325.2118	-865.52057
3	0.005	73.030968	1617.8407	-633.55164	87.018822	1598.5896	-573.4624	115.04315	1588.6409	-704.22009	180.4305	239.646	-1728.485	174.27559	251.49536	494.35873	296.67221	967.02667	-680.21118	296.62967	966.07471	-608.23132	289.92581	976.80267	-643.17035	262.90436	1403.0564	-626.67639	121.47095	1345.2217	-643.17096	279.11368	1128.0267	-638.05463	207.00169	1416.6624	-771.80786	184.01457	1406.6595	-491.07761	236.97913	615.62531	-452.88019	257.85406	553.76147	-465.14044	207.89191	554.75159	-456.49304	246.86623	243.44719	-439.69714	297.20132	241.29733	-444.3017	266.84927	183.13417	-445.36615	260.74585	73.906616	-525.28748	278.01703	74.602638	-452.32959	319.91516	37.052006	-490.80356	121.92764	44.777699	-481.78027	148.4187	29.009666	-404.66171	122.76361	40.989799	-446.70142	247.95169	615.64636	-816.2915	220.33469	556.23755	-813.55859	271.21332	555.29779	-806.67383	262.17163	282.31503	-826.71844	283.13013	220.22771	-819.80518	312.24542	279.11395	-820.03833	289.28296	74.72599	-803.2912	253.05554	78.45607	-734.17584	329.11038	31.431011	-759.37335	149.22282	38.534054	-839.81366	129.53079	41.754272	-788.6463	136.64413	39.45327	-818.43799	261.97769	1320.1095	-306.72638	234.2067	1361.609	-307.45575	244.94092	1367.9867	-368.43188	186.69534	1336.3822	23.10183	294.43726	1372.2152	-1268.0811	236.05898	1390.6257	-1273.4014	241.6761	1400.6362	-1342.9711	283.14398	1371.8615	-873.07886	290.00064	1363.6912	-934.26495	297.82693	1325.2393	-865.56091
4	0.01	72.854149	1617.8037	-633.60071	86.845589	1598.5426	-573.52759	114.90794	1588.6299	-704.27576	180.58524	239.62894	-1728.5048	174.36304	251.50443	494.3595	296.62863	967.03198	-680.28845	296.60742	966.11053	-608.31494	289.88232	976.83667	-643.25519	262.82251	1403.054	-626.72192	121.40099	1345.2059	-643.22949	279.09448	1128.0215	-638.11536	206.91446	1416.6884	-771.86682	183.99458	1406.6533	-491.06683	236.81993	615.2428	-453.22668	258.15744	553.88977	-465.33475	208.13954	555.0965	-456.17322	247.09102	243.47267	-440.03436	297.42529	241.37051	-444.51181	267.04404	183.20633	-445.50745	260.69751	73.944771	-525.3728	277.13055	74.010307	-453.09335	319.8743	37.094051	-490.94577	121.89023	44.740829	-481.78891	148.44815	29.007217	-404.65356	122.78436	40.96806	-446.67322	248.20216	615.68335	-816.2959	220.62022	556.25275	-813.57654	271.46356	555.34912	-806.69513	262.40585	282.3494	-826.73334	283.30725	220.2292	-819.8316	312.49277	279.09686	-820.0387	289.32529	74.711723	-803.31543	253.07402	78.448387	-734.20825	329.11591	31.41997	-759.37677	149.22365	38.517578	-839.82727	129.54045	41.767262	-788.66003	136.6572	39.456997	-818.45068	261.83588	1320.0562	-306.77991	234.08841	1361.5728	-307.50177	244.86438	1367.9816	-368.45786	186.48186	1336.3644	23.023678	294.41702	1372.2733	-1268.1309	236.01736	1390.6783	-1273.4462	241.67174	1400.7103	-1343.0104	283.06555	1371.8979	-873.13727	289.94049	1363.7133	-934.30896	297.77829	1325.2744	-865.60822
